M48
;GenerationSoftware,Autodesk,EAGLE,9.6.2*%
;CreationDate,2025-01-31T20:15:51Z*%
FMAT,2
ICI,OFF
METRIC,TZ,000.000
T6C0.381
T5C0.508
T4C1.016
T3C1.300
T2C2.997
T1C3.302
%
G90
M71
T1
X2540Y44450
X80010Y44450
X2540Y2540
X80010Y2540
X22860Y44450
X2540Y94488
X80010Y94488
X2540Y52578
X80010Y52578
X22860Y94488
X2540Y144526
X80010Y144526
X2540Y102616
X80010Y102616
X22860Y144526
X2540Y194564
X80010Y194564
X2540Y152654
X80010Y152654
X22860Y194564
T2
X70612Y92376
X70612Y86376
X65912Y189452
X70612Y136414
X70612Y192452
X70612Y186452
X65912Y139414
X70612Y36338
X70612Y42338
X65912Y39338
X65912Y89376
X70612Y142414
T3
X44450Y65278
X69088Y165354
X6350Y22860
X19050Y15240
X19050Y22860
X3810Y15240
X8128Y15240
X28067Y159004
X33067Y159004
X38067Y159004
X44450Y159004
X49450Y159004
X54450Y159004
X11684Y8890
X16684Y8890
X21684Y8890
X60833Y159004
X65833Y159004
X70833Y159004
X26670Y22860
X39370Y15240
X39370Y22860
X24130Y15240
X28448Y15240
X46990Y22860
X59690Y15240
X59690Y22860
X44450Y15240
X48768Y15240
X67310Y22860
X80010Y15240
X80010Y22860
X64770Y15240
X69088Y15240
X28067Y8890
X33067Y8890
X38067Y8890
X44450Y8890
X49450Y8890
X54450Y8890
X60833Y8890
X65833Y8890
X70833Y8890
X6350Y72898
X19050Y65278
X19050Y72898
X3810Y65278
X8128Y65278
X38067Y108966
X33067Y58928
X11684Y58928
X16684Y58928
X21684Y58928
X26670Y72898
X39370Y65278
X39370Y72898
X24130Y65278
X28448Y65278
X46990Y72898
X59690Y65278
X59690Y72898
X48768Y65278
X67310Y72898
X80010Y65278
X80010Y72898
X64770Y65278
X69088Y65278
X28067Y58928
X39370Y165354
X38067Y58928
X44450Y58928
X49450Y58928
X54450Y58928
X60833Y58928
X65833Y58928
X70833Y58928
X6350Y122936
X19050Y115316
X19050Y122936
X3810Y115316
X8128Y115316
X11684Y108966
X16684Y108966
X21684Y108966
X26670Y122936
X39370Y115316
X39370Y122936
X24130Y115316
X28448Y115316
X46990Y122936
X59690Y115316
X59690Y122936
X44450Y115316
X48768Y115316
X67310Y122936
X80010Y115316
X80010Y122936
X64770Y115316
X69088Y115316
X28067Y108966
X33067Y108966
X44450Y108966
X49450Y108966
X54450Y108966
X60833Y108966
X65833Y108966
X70833Y108966
X6350Y172974
X19050Y165354
X19050Y172974
X3810Y165354
X8128Y165354
X11684Y159004
X16684Y159004
X21684Y159004
X26670Y172974
X39370Y172974
X24130Y165354
X28448Y165354
X46990Y172974
X59690Y165354
X59690Y172974
X44450Y165354
X48768Y165354
X67310Y172974
X80010Y165354
X80010Y172974
X64770Y165354
T4
X30480Y45720
X27940Y95758
X30480Y95758
X35560Y195834
X35560Y95758
X33020Y195834
X33020Y145796
X35560Y45720
X33020Y45720
X27940Y45720
X30480Y145796
X30480Y195834
X27940Y195834
X27940Y145796
X35560Y145796
X33020Y95758
T5
X28575Y39243
X28575Y36703
X31115Y39243
X31115Y36703
X33655Y39243
X33655Y36703
X28575Y89281
X33655Y136779
X33655Y89281
X28575Y139319
X28575Y136779
X28575Y189357
X28575Y186817
X31115Y189357
X31115Y186817
X33655Y189357
X33655Y186817
X31115Y139319
X31115Y136779
X33655Y139319
X31115Y86741
X31115Y89281
X28575Y86741
X33655Y86741
T6
X56972Y192583
X53924Y191440
X75184Y185801
X49022Y182626
X45618Y182499
X20574Y182245
X18161Y182245
X7747Y185039
X36830Y194437
X35941Y188214
X74803Y186944
X33655Y192405
X48768Y183642
X43942Y183261
X20574Y183261
X17780Y183261
X9398Y183261
X7874Y186182
X75053Y29616
X54610Y181864
X26289Y185166
X34925Y192405
X22098Y183769
X41402Y183820
X17272Y184150
X14160Y180276
X34544Y180213
X19685Y184150
X45593Y183972
X54483Y180111
X47498Y184023
X75053Y179730
X58369Y196215
X55626Y185166
X36830Y186436
X62890Y193802
X30353Y33909
X39243Y34036
X37973Y41402
X50800Y34290
X45212Y38278
X31623Y43688
X29769Y39345
X26162Y40767
X32512Y36830
X34544Y28194
X14097Y28194
X54610Y28067
X75057Y27940
X53924Y40183
X53924Y39167
X58801Y34188
X55601Y45263
X78994Y34163
X3683Y37211
X53848Y34290
X58928Y36830
X56972Y40310
X56972Y41453
X56972Y42469
X53924Y41326
X75184Y35687
X49022Y32512
X45618Y32385
X20574Y32131
X18161Y32131
X7747Y34925
X36830Y44323
X35941Y38100
X74803Y36830
X33655Y42291
X48768Y33528
X56642Y181915
X43942Y33147
X20574Y33147
X17780Y33147
X9398Y33147
X7874Y36068
X56642Y31801
X54610Y31750
X26289Y35052
X34925Y42291
X22098Y33655
X41402Y33706
X17272Y34036
X14160Y30162
X34544Y30099
X19685Y34036
X45593Y33858
X54483Y29997
X47498Y33909
X58369Y46101
X55626Y35052
X36830Y36322
X62890Y43688
X30353Y83947
X39243Y84074
X37973Y91440
X50800Y84328
X45212Y88316
X31623Y93726
X29769Y89383
X26162Y90805
X32512Y86868
X34544Y78232
X14097Y78232
X54610Y78105
X75057Y77978
X53924Y90221
X53924Y89205
X58801Y84226
X55601Y95301
X78994Y84201
X3683Y87249
X53848Y84328
X58928Y86868
X56972Y90348
X56972Y91491
X56972Y92507
X53924Y91364
X75184Y85725
X49022Y82550
X45618Y82423
X20574Y82169
X18161Y82169
X7747Y84963
X36830Y94361
X35941Y88138
X74803Y86868
X33655Y92329
X48768Y83566
X43942Y83185
X20574Y83185
X17780Y83185
X9398Y83185
X7874Y86106
X56642Y81839
X54610Y81788
X26289Y85090
X34925Y92329
X22098Y83693
X41402Y83744
X17272Y84074
X14160Y80201
X34544Y80137
X19685Y84074
X45593Y83896
X54483Y80035
X47498Y83947
X75053Y79654
X58369Y96139
X55626Y85090
X36830Y86360
X62890Y93726
X30353Y133985
X39243Y134112
X37973Y141478
X50800Y134366
X45212Y138354
X31623Y143764
X29769Y139421
X26162Y140843
X32512Y136906
X34544Y128270
X14097Y128270
X54610Y128143
X75057Y128016
X53924Y140259
X53924Y139243
X58801Y134264
X55601Y145339
X78994Y134239
X3683Y137287
X53848Y134366
X58928Y136906
X56972Y140386
X56972Y141529
X56972Y142545
X53924Y141402
X75184Y135763
X49022Y132588
X41402Y133782
X45618Y132461
X20574Y132207
X18161Y132207
X7747Y135001
X36830Y144399
X35941Y138176
X74803Y136906
X33655Y142367
X48768Y133604
X43942Y133223
X20574Y133223
X17780Y133223
X9398Y133223
X7874Y136144
X56642Y131877
X54610Y131826
X26289Y135128
X34925Y142367
X22098Y133731
X17272Y134112
X14160Y130238
X34544Y130175
X19685Y134112
X45593Y133934
X54483Y130073
X47498Y133985
X75053Y129692
X58369Y146177
X55626Y135128
X36830Y136398
X62890Y143764
X30353Y184023
X39243Y184150
X37973Y191516
X50800Y184404
X45212Y188392
X31623Y193802
X29769Y189459
X26162Y190881
X32512Y186944
X34544Y178308
X14097Y178308
X54610Y178181
X75057Y178054
X53924Y190297
X53924Y189281
X58801Y184302
X55601Y195377
X78994Y184277
X3683Y187325
X53848Y184404
X58928Y186944
X56972Y190424
X56972Y191567
M30