G04 EAGLE Gerber RS-274X export*
G75*
%MOMM*%
%FSLAX34Y34*%
%LPD*%
%INSoldermask Top*%
%IPPOS*%
%AMOC8*
5,1,8,0,0,1.08239X$1,22.5*%
G01*
%ADD10R,1.303200X1.203200*%
%ADD11R,1.033200X0.833200*%
%ADD12C,0.505344*%
%ADD13R,2.203200X1.403200*%
%ADD14R,1.553200X0.803200*%
%ADD15C,2.489200*%
%ADD16R,1.203200X1.303200*%
%ADD17C,3.505200*%
%ADD18R,1.003200X1.103200*%
%ADD19R,2.616200X2.616200*%
%ADD20C,2.616200*%
%ADD21C,1.203200*%
%ADD22C,2.082800*%
%ADD23R,0.803200X1.403200*%
%ADD24C,4.521200*%
%ADD25R,2.703200X1.403200*%
%ADD26R,1.473200X1.673200*%
%ADD27R,1.553200X0.753200*%
%ADD28R,1.103200X1.053200*%
%ADD29R,4.303200X2.053200*%
%ADD30C,1.270000*%
%ADD31C,1.703200*%


D10*
X273440Y336550D03*
X290440Y336550D03*
D11*
X190500Y291981D03*
X190500Y268981D03*
D12*
X119060Y277547D02*
X112080Y277547D01*
X119060Y277547D02*
X119060Y270567D01*
X112080Y270567D01*
X112080Y277547D01*
X112080Y275367D02*
X119060Y275367D01*
X119060Y295087D02*
X112080Y295087D01*
X119060Y295087D02*
X119060Y288107D01*
X112080Y288107D01*
X112080Y295087D01*
X112080Y292907D02*
X119060Y292907D01*
D13*
X811450Y328870D03*
X811450Y384870D03*
D14*
X774700Y341870D03*
X774700Y351870D03*
X774700Y361870D03*
X774700Y371870D03*
D13*
X14050Y384870D03*
X14050Y328870D03*
D14*
X50800Y371870D03*
X50800Y361870D03*
X50800Y351870D03*
X50800Y341870D03*
D15*
X63500Y228600D03*
X190500Y152400D03*
X190500Y228600D03*
X38100Y152400D03*
X81280Y152400D03*
D16*
X166370Y272766D03*
X166370Y289766D03*
X90170Y272766D03*
X90170Y289766D03*
D10*
X232800Y336550D03*
X249800Y336550D03*
D17*
X25400Y444500D03*
X800100Y444500D03*
D16*
X375920Y373770D03*
X375920Y390770D03*
D10*
X600084Y436880D03*
X617084Y436880D03*
D12*
X612594Y452440D02*
X612594Y459420D01*
X619574Y459420D01*
X619574Y452440D01*
X612594Y452440D01*
X612594Y457240D02*
X619574Y457240D01*
X595054Y459420D02*
X595054Y452440D01*
X595054Y459420D02*
X602034Y459420D01*
X602034Y452440D01*
X595054Y452440D01*
X595054Y457240D02*
X602034Y457240D01*
D18*
X150470Y291940D03*
X131470Y291940D03*
X140970Y270940D03*
D17*
X25400Y25400D03*
X800100Y25400D03*
D19*
X116840Y88900D03*
D20*
X166840Y88900D03*
X216840Y88900D03*
D21*
X50800Y25400D03*
X800100Y419100D03*
D22*
X355600Y457200D03*
X330200Y457200D03*
X304800Y457200D03*
X279400Y457200D03*
D23*
X209550Y409000D03*
X196850Y409000D03*
X184150Y409000D03*
X171450Y409000D03*
X171450Y353000D03*
X184150Y353000D03*
X196850Y353000D03*
X209550Y353000D03*
X466090Y409508D03*
X453390Y409508D03*
X440690Y409508D03*
X427990Y409508D03*
X427990Y353508D03*
X440690Y353508D03*
X453390Y353508D03*
X466090Y353508D03*
X273050Y354270D03*
X285750Y354270D03*
X298450Y354270D03*
X311150Y354270D03*
X323850Y354270D03*
X336550Y354270D03*
X349250Y354270D03*
X349250Y410270D03*
X336550Y410270D03*
X323850Y410270D03*
X311150Y410270D03*
X298450Y410270D03*
X285750Y410270D03*
X273050Y410270D03*
D15*
X266700Y228600D03*
X393700Y152400D03*
X393700Y228600D03*
X241300Y152400D03*
X284480Y152400D03*
X469900Y228600D03*
X596900Y152400D03*
X596900Y228600D03*
X444500Y152400D03*
X487680Y152400D03*
X673100Y228600D03*
X800100Y152400D03*
X800100Y228600D03*
X647700Y152400D03*
X690880Y152400D03*
D18*
X760070Y289400D03*
X741070Y289400D03*
X750570Y268400D03*
X555600Y290670D03*
X536600Y290670D03*
X546100Y269670D03*
X354940Y291940D03*
X335940Y291940D03*
X345440Y270940D03*
D16*
X391160Y373770D03*
X391160Y390770D03*
X406400Y373770D03*
X406400Y390770D03*
X231140Y372500D03*
X231140Y389500D03*
X250190Y372500D03*
X250190Y389500D03*
D11*
X596900Y290711D03*
X596900Y267711D03*
X800100Y290408D03*
X800100Y267408D03*
X394970Y290711D03*
X394970Y267711D03*
D16*
X372110Y271496D03*
X372110Y288496D03*
X574040Y271496D03*
X574040Y288496D03*
X779780Y269337D03*
X779780Y286337D03*
D12*
X326070Y276277D02*
X319090Y276277D01*
X326070Y276277D02*
X326070Y269297D01*
X319090Y269297D01*
X319090Y276277D01*
X319090Y274097D02*
X326070Y274097D01*
X326070Y293817D02*
X319090Y293817D01*
X326070Y293817D02*
X326070Y286837D01*
X319090Y286837D01*
X319090Y293817D01*
X319090Y291637D02*
X326070Y291637D01*
X517210Y276277D02*
X524190Y276277D01*
X524190Y269297D01*
X517210Y269297D01*
X517210Y276277D01*
X517210Y274097D02*
X524190Y274097D01*
X524190Y293817D02*
X517210Y293817D01*
X524190Y293817D02*
X524190Y286837D01*
X517210Y286837D01*
X517210Y293817D01*
X517210Y291637D02*
X524190Y291637D01*
X722950Y274704D02*
X729930Y274704D01*
X729930Y267724D01*
X722950Y267724D01*
X722950Y274704D01*
X722950Y272524D02*
X729930Y272524D01*
X729930Y292244D02*
X722950Y292244D01*
X729930Y292244D02*
X729930Y285264D01*
X722950Y285264D01*
X722950Y292244D01*
X722950Y290064D02*
X729930Y290064D01*
D16*
X297180Y271496D03*
X297180Y288496D03*
X496570Y274036D03*
X496570Y291036D03*
X698500Y269923D03*
X698500Y286923D03*
D19*
X280670Y88900D03*
D20*
X330670Y88900D03*
X380670Y88900D03*
D19*
X444500Y88900D03*
D20*
X494500Y88900D03*
X544500Y88900D03*
D19*
X608330Y88900D03*
D20*
X658330Y88900D03*
X708330Y88900D03*
D24*
X706120Y363380D03*
X706120Y423380D03*
X659120Y393380D03*
D16*
X522986Y375530D03*
X522986Y358530D03*
X507746Y375530D03*
X507746Y358530D03*
D25*
X609854Y417566D03*
X609854Y384566D03*
D26*
X651674Y341376D03*
X608674Y341376D03*
D27*
X555971Y412598D03*
X555971Y403098D03*
X555971Y393598D03*
X583473Y393598D03*
X583473Y403098D03*
X583473Y412598D03*
D28*
X548132Y425746D03*
X548132Y437346D03*
D29*
X510540Y453390D03*
X511040Y416890D03*
D16*
X575310Y344560D03*
X575310Y361560D03*
D10*
X574920Y377190D03*
X557920Y377190D03*
D11*
X569722Y436556D03*
X569722Y459556D03*
D17*
X228600Y444500D03*
D11*
X556260Y340290D03*
X556260Y363290D03*
D10*
X273440Y836930D03*
X290440Y836930D03*
D11*
X190500Y792361D03*
X190500Y769361D03*
D12*
X119060Y777927D02*
X112080Y777927D01*
X119060Y777927D02*
X119060Y770947D01*
X112080Y770947D01*
X112080Y777927D01*
X112080Y775747D02*
X119060Y775747D01*
X119060Y795467D02*
X112080Y795467D01*
X119060Y795467D02*
X119060Y788487D01*
X112080Y788487D01*
X112080Y795467D01*
X112080Y793287D02*
X119060Y793287D01*
D13*
X811450Y829250D03*
X811450Y885250D03*
D14*
X774700Y842250D03*
X774700Y852250D03*
X774700Y862250D03*
X774700Y872250D03*
D13*
X14050Y885250D03*
X14050Y829250D03*
D14*
X50800Y872250D03*
X50800Y862250D03*
X50800Y852250D03*
X50800Y842250D03*
D15*
X63500Y728980D03*
X190500Y652780D03*
X190500Y728980D03*
X38100Y652780D03*
X81280Y652780D03*
D16*
X166370Y773146D03*
X166370Y790146D03*
X90170Y773146D03*
X90170Y790146D03*
D10*
X232800Y836930D03*
X249800Y836930D03*
D17*
X25400Y944880D03*
X800100Y944880D03*
D16*
X375920Y874150D03*
X375920Y891150D03*
D10*
X600084Y937260D03*
X617084Y937260D03*
D12*
X612594Y952820D02*
X612594Y959800D01*
X619574Y959800D01*
X619574Y952820D01*
X612594Y952820D01*
X612594Y957620D02*
X619574Y957620D01*
X595054Y959800D02*
X595054Y952820D01*
X595054Y959800D02*
X602034Y959800D01*
X602034Y952820D01*
X595054Y952820D01*
X595054Y957620D02*
X602034Y957620D01*
D18*
X150470Y792320D03*
X131470Y792320D03*
X140970Y771320D03*
D17*
X25400Y525780D03*
X800100Y525780D03*
D19*
X116840Y589280D03*
D20*
X166840Y589280D03*
X216840Y589280D03*
D21*
X50800Y525780D03*
X800100Y919480D03*
D22*
X355600Y957580D03*
X330200Y957580D03*
X304800Y957580D03*
X279400Y957580D03*
D23*
X209550Y909380D03*
X196850Y909380D03*
X184150Y909380D03*
X171450Y909380D03*
X171450Y853380D03*
X184150Y853380D03*
X196850Y853380D03*
X209550Y853380D03*
X466090Y909888D03*
X453390Y909888D03*
X440690Y909888D03*
X427990Y909888D03*
X427990Y853888D03*
X440690Y853888D03*
X453390Y853888D03*
X466090Y853888D03*
X273050Y854650D03*
X285750Y854650D03*
X298450Y854650D03*
X311150Y854650D03*
X323850Y854650D03*
X336550Y854650D03*
X349250Y854650D03*
X349250Y910650D03*
X336550Y910650D03*
X323850Y910650D03*
X311150Y910650D03*
X298450Y910650D03*
X285750Y910650D03*
X273050Y910650D03*
D15*
X266700Y728980D03*
X393700Y652780D03*
X393700Y728980D03*
X241300Y652780D03*
X284480Y652780D03*
X469900Y728980D03*
X596900Y652780D03*
X596900Y728980D03*
X444500Y652780D03*
X487680Y652780D03*
X673100Y728980D03*
X800100Y652780D03*
X800100Y728980D03*
X647700Y652780D03*
X690880Y652780D03*
D18*
X760070Y789780D03*
X741070Y789780D03*
X750570Y768780D03*
X555600Y791050D03*
X536600Y791050D03*
X546100Y770050D03*
X354940Y792320D03*
X335940Y792320D03*
X345440Y771320D03*
D16*
X391160Y874150D03*
X391160Y891150D03*
X406400Y874150D03*
X406400Y891150D03*
X231140Y872880D03*
X231140Y889880D03*
X250190Y872880D03*
X250190Y889880D03*
D11*
X596900Y791091D03*
X596900Y768091D03*
X800100Y790788D03*
X800100Y767788D03*
X394970Y791091D03*
X394970Y768091D03*
D16*
X372110Y771876D03*
X372110Y788876D03*
X574040Y771876D03*
X574040Y788876D03*
X779780Y769717D03*
X779780Y786717D03*
D12*
X326070Y776657D02*
X319090Y776657D01*
X326070Y776657D02*
X326070Y769677D01*
X319090Y769677D01*
X319090Y776657D01*
X319090Y774477D02*
X326070Y774477D01*
X326070Y794197D02*
X319090Y794197D01*
X326070Y794197D02*
X326070Y787217D01*
X319090Y787217D01*
X319090Y794197D01*
X319090Y792017D02*
X326070Y792017D01*
X517210Y776657D02*
X524190Y776657D01*
X524190Y769677D01*
X517210Y769677D01*
X517210Y776657D01*
X517210Y774477D02*
X524190Y774477D01*
X524190Y794197D02*
X517210Y794197D01*
X524190Y794197D02*
X524190Y787217D01*
X517210Y787217D01*
X517210Y794197D01*
X517210Y792017D02*
X524190Y792017D01*
X722950Y775084D02*
X729930Y775084D01*
X729930Y768104D01*
X722950Y768104D01*
X722950Y775084D01*
X722950Y772904D02*
X729930Y772904D01*
X729930Y792624D02*
X722950Y792624D01*
X729930Y792624D02*
X729930Y785644D01*
X722950Y785644D01*
X722950Y792624D01*
X722950Y790444D02*
X729930Y790444D01*
D16*
X297180Y771876D03*
X297180Y788876D03*
X496570Y774416D03*
X496570Y791416D03*
X698500Y770303D03*
X698500Y787303D03*
D19*
X280670Y589280D03*
D20*
X330670Y589280D03*
X380670Y589280D03*
D19*
X444500Y589280D03*
D20*
X494500Y589280D03*
X544500Y589280D03*
D19*
X608330Y589280D03*
D20*
X658330Y589280D03*
X708330Y589280D03*
D24*
X706120Y863760D03*
X706120Y923760D03*
X659120Y893760D03*
D16*
X522986Y875910D03*
X522986Y858910D03*
X507746Y875910D03*
X507746Y858910D03*
D25*
X609854Y917946D03*
X609854Y884946D03*
D26*
X651674Y841756D03*
X608674Y841756D03*
D27*
X555971Y912978D03*
X555971Y903478D03*
X555971Y893978D03*
X583473Y893978D03*
X583473Y903478D03*
X583473Y912978D03*
D28*
X548132Y926126D03*
X548132Y937726D03*
D29*
X510540Y953770D03*
X511040Y917270D03*
D16*
X575310Y844940D03*
X575310Y861940D03*
D10*
X574920Y877570D03*
X557920Y877570D03*
D11*
X569722Y936936D03*
X569722Y959936D03*
D17*
X228600Y944880D03*
D11*
X556260Y840670D03*
X556260Y863670D03*
D10*
X273440Y1337310D03*
X290440Y1337310D03*
D11*
X190500Y1292741D03*
X190500Y1269741D03*
D12*
X119060Y1278307D02*
X112080Y1278307D01*
X119060Y1278307D02*
X119060Y1271327D01*
X112080Y1271327D01*
X112080Y1278307D01*
X112080Y1276127D02*
X119060Y1276127D01*
X119060Y1295847D02*
X112080Y1295847D01*
X119060Y1295847D02*
X119060Y1288867D01*
X112080Y1288867D01*
X112080Y1295847D01*
X112080Y1293667D02*
X119060Y1293667D01*
D13*
X811450Y1329630D03*
X811450Y1385630D03*
D14*
X774700Y1342630D03*
X774700Y1352630D03*
X774700Y1362630D03*
X774700Y1372630D03*
D13*
X14050Y1385630D03*
X14050Y1329630D03*
D14*
X50800Y1372630D03*
X50800Y1362630D03*
X50800Y1352630D03*
X50800Y1342630D03*
D15*
X63500Y1229360D03*
X190500Y1153160D03*
X190500Y1229360D03*
X38100Y1153160D03*
X81280Y1153160D03*
D16*
X166370Y1273526D03*
X166370Y1290526D03*
X90170Y1273526D03*
X90170Y1290526D03*
D10*
X232800Y1337310D03*
X249800Y1337310D03*
D17*
X25400Y1445260D03*
X800100Y1445260D03*
D16*
X375920Y1374530D03*
X375920Y1391530D03*
D10*
X600084Y1437640D03*
X617084Y1437640D03*
D12*
X612594Y1453200D02*
X612594Y1460180D01*
X619574Y1460180D01*
X619574Y1453200D01*
X612594Y1453200D01*
X612594Y1458000D02*
X619574Y1458000D01*
X595054Y1460180D02*
X595054Y1453200D01*
X595054Y1460180D02*
X602034Y1460180D01*
X602034Y1453200D01*
X595054Y1453200D01*
X595054Y1458000D02*
X602034Y1458000D01*
D18*
X150470Y1292700D03*
X131470Y1292700D03*
X140970Y1271700D03*
D17*
X25400Y1026160D03*
X800100Y1026160D03*
D19*
X116840Y1089660D03*
D20*
X166840Y1089660D03*
X216840Y1089660D03*
D21*
X50800Y1026160D03*
X800100Y1419860D03*
D22*
X355600Y1457960D03*
X330200Y1457960D03*
X304800Y1457960D03*
X279400Y1457960D03*
D23*
X209550Y1409760D03*
X196850Y1409760D03*
X184150Y1409760D03*
X171450Y1409760D03*
X171450Y1353760D03*
X184150Y1353760D03*
X196850Y1353760D03*
X209550Y1353760D03*
X466090Y1410268D03*
X453390Y1410268D03*
X440690Y1410268D03*
X427990Y1410268D03*
X427990Y1354268D03*
X440690Y1354268D03*
X453390Y1354268D03*
X466090Y1354268D03*
X273050Y1355030D03*
X285750Y1355030D03*
X298450Y1355030D03*
X311150Y1355030D03*
X323850Y1355030D03*
X336550Y1355030D03*
X349250Y1355030D03*
X349250Y1411030D03*
X336550Y1411030D03*
X323850Y1411030D03*
X311150Y1411030D03*
X298450Y1411030D03*
X285750Y1411030D03*
X273050Y1411030D03*
D15*
X266700Y1229360D03*
X393700Y1153160D03*
X393700Y1229360D03*
X241300Y1153160D03*
X284480Y1153160D03*
X469900Y1229360D03*
X596900Y1153160D03*
X596900Y1229360D03*
X444500Y1153160D03*
X487680Y1153160D03*
X673100Y1229360D03*
X800100Y1153160D03*
X800100Y1229360D03*
X647700Y1153160D03*
X690880Y1153160D03*
D18*
X760070Y1290160D03*
X741070Y1290160D03*
X750570Y1269160D03*
X555600Y1291430D03*
X536600Y1291430D03*
X546100Y1270430D03*
X354940Y1292700D03*
X335940Y1292700D03*
X345440Y1271700D03*
D16*
X391160Y1374530D03*
X391160Y1391530D03*
X406400Y1374530D03*
X406400Y1391530D03*
X231140Y1373260D03*
X231140Y1390260D03*
X250190Y1373260D03*
X250190Y1390260D03*
D11*
X596900Y1291471D03*
X596900Y1268471D03*
X800100Y1291168D03*
X800100Y1268168D03*
X394970Y1291471D03*
X394970Y1268471D03*
D16*
X372110Y1272256D03*
X372110Y1289256D03*
X574040Y1272256D03*
X574040Y1289256D03*
X779780Y1270097D03*
X779780Y1287097D03*
D12*
X326070Y1277037D02*
X319090Y1277037D01*
X326070Y1277037D02*
X326070Y1270057D01*
X319090Y1270057D01*
X319090Y1277037D01*
X319090Y1274857D02*
X326070Y1274857D01*
X326070Y1294577D02*
X319090Y1294577D01*
X326070Y1294577D02*
X326070Y1287597D01*
X319090Y1287597D01*
X319090Y1294577D01*
X319090Y1292397D02*
X326070Y1292397D01*
X517210Y1277037D02*
X524190Y1277037D01*
X524190Y1270057D01*
X517210Y1270057D01*
X517210Y1277037D01*
X517210Y1274857D02*
X524190Y1274857D01*
X524190Y1294577D02*
X517210Y1294577D01*
X524190Y1294577D02*
X524190Y1287597D01*
X517210Y1287597D01*
X517210Y1294577D01*
X517210Y1292397D02*
X524190Y1292397D01*
X722950Y1275464D02*
X729930Y1275464D01*
X729930Y1268484D01*
X722950Y1268484D01*
X722950Y1275464D01*
X722950Y1273284D02*
X729930Y1273284D01*
X729930Y1293004D02*
X722950Y1293004D01*
X729930Y1293004D02*
X729930Y1286024D01*
X722950Y1286024D01*
X722950Y1293004D01*
X722950Y1290824D02*
X729930Y1290824D01*
D16*
X297180Y1272256D03*
X297180Y1289256D03*
X496570Y1274796D03*
X496570Y1291796D03*
X698500Y1270683D03*
X698500Y1287683D03*
D19*
X280670Y1089660D03*
D20*
X330670Y1089660D03*
X380670Y1089660D03*
D19*
X444500Y1089660D03*
D20*
X494500Y1089660D03*
X544500Y1089660D03*
D19*
X608330Y1089660D03*
D20*
X658330Y1089660D03*
X708330Y1089660D03*
D24*
X706120Y1364140D03*
X706120Y1424140D03*
X659120Y1394140D03*
D16*
X522986Y1376290D03*
X522986Y1359290D03*
X507746Y1376290D03*
X507746Y1359290D03*
D25*
X609854Y1418326D03*
X609854Y1385326D03*
D26*
X651674Y1342136D03*
X608674Y1342136D03*
D27*
X555971Y1413358D03*
X555971Y1403858D03*
X555971Y1394358D03*
X583473Y1394358D03*
X583473Y1403858D03*
X583473Y1413358D03*
D28*
X548132Y1426506D03*
X548132Y1438106D03*
D29*
X510540Y1454150D03*
X511040Y1417650D03*
D16*
X575310Y1345320D03*
X575310Y1362320D03*
D10*
X574920Y1377950D03*
X557920Y1377950D03*
D11*
X569722Y1437316D03*
X569722Y1460316D03*
D17*
X228600Y1445260D03*
D11*
X556260Y1341050D03*
X556260Y1364050D03*
D10*
X273440Y1837690D03*
X290440Y1837690D03*
D11*
X190500Y1793121D03*
X190500Y1770121D03*
D12*
X119060Y1778687D02*
X112080Y1778687D01*
X119060Y1778687D02*
X119060Y1771707D01*
X112080Y1771707D01*
X112080Y1778687D01*
X112080Y1776507D02*
X119060Y1776507D01*
X119060Y1796227D02*
X112080Y1796227D01*
X119060Y1796227D02*
X119060Y1789247D01*
X112080Y1789247D01*
X112080Y1796227D01*
X112080Y1794047D02*
X119060Y1794047D01*
D13*
X811450Y1830010D03*
X811450Y1886010D03*
D14*
X774700Y1843010D03*
X774700Y1853010D03*
X774700Y1863010D03*
X774700Y1873010D03*
D13*
X14050Y1886010D03*
X14050Y1830010D03*
D14*
X50800Y1873010D03*
X50800Y1863010D03*
X50800Y1853010D03*
X50800Y1843010D03*
D15*
X63500Y1729740D03*
X190500Y1653540D03*
X190500Y1729740D03*
X38100Y1653540D03*
X81280Y1653540D03*
D16*
X166370Y1773906D03*
X166370Y1790906D03*
X90170Y1773906D03*
X90170Y1790906D03*
D10*
X232800Y1837690D03*
X249800Y1837690D03*
D17*
X25400Y1945640D03*
X800100Y1945640D03*
D16*
X375920Y1874910D03*
X375920Y1891910D03*
D10*
X600084Y1938020D03*
X617084Y1938020D03*
D12*
X612594Y1953580D02*
X612594Y1960560D01*
X619574Y1960560D01*
X619574Y1953580D01*
X612594Y1953580D01*
X612594Y1958380D02*
X619574Y1958380D01*
X595054Y1960560D02*
X595054Y1953580D01*
X595054Y1960560D02*
X602034Y1960560D01*
X602034Y1953580D01*
X595054Y1953580D01*
X595054Y1958380D02*
X602034Y1958380D01*
D18*
X150470Y1793080D03*
X131470Y1793080D03*
X140970Y1772080D03*
D17*
X25400Y1526540D03*
X800100Y1526540D03*
D19*
X116840Y1590040D03*
D20*
X166840Y1590040D03*
X216840Y1590040D03*
D21*
X50800Y1526540D03*
X800100Y1920240D03*
D22*
X355600Y1958340D03*
X330200Y1958340D03*
X304800Y1958340D03*
X279400Y1958340D03*
D23*
X209550Y1910140D03*
X196850Y1910140D03*
X184150Y1910140D03*
X171450Y1910140D03*
X171450Y1854140D03*
X184150Y1854140D03*
X196850Y1854140D03*
X209550Y1854140D03*
X466090Y1910648D03*
X453390Y1910648D03*
X440690Y1910648D03*
X427990Y1910648D03*
X427990Y1854648D03*
X440690Y1854648D03*
X453390Y1854648D03*
X466090Y1854648D03*
X273050Y1855410D03*
X285750Y1855410D03*
X298450Y1855410D03*
X311150Y1855410D03*
X323850Y1855410D03*
X336550Y1855410D03*
X349250Y1855410D03*
X349250Y1911410D03*
X336550Y1911410D03*
X323850Y1911410D03*
X311150Y1911410D03*
X298450Y1911410D03*
X285750Y1911410D03*
X273050Y1911410D03*
D15*
X266700Y1729740D03*
X393700Y1653540D03*
X393700Y1729740D03*
X241300Y1653540D03*
X284480Y1653540D03*
X469900Y1729740D03*
X596900Y1653540D03*
X596900Y1729740D03*
X444500Y1653540D03*
X487680Y1653540D03*
X673100Y1729740D03*
X800100Y1653540D03*
X800100Y1729740D03*
X647700Y1653540D03*
X690880Y1653540D03*
D18*
X760070Y1790540D03*
X741070Y1790540D03*
X750570Y1769540D03*
X555600Y1791810D03*
X536600Y1791810D03*
X546100Y1770810D03*
X354940Y1793080D03*
X335940Y1793080D03*
X345440Y1772080D03*
D16*
X391160Y1874910D03*
X391160Y1891910D03*
X406400Y1874910D03*
X406400Y1891910D03*
X231140Y1873640D03*
X231140Y1890640D03*
X250190Y1873640D03*
X250190Y1890640D03*
D11*
X596900Y1791851D03*
X596900Y1768851D03*
X800100Y1791548D03*
X800100Y1768548D03*
X394970Y1791851D03*
X394970Y1768851D03*
D16*
X372110Y1772636D03*
X372110Y1789636D03*
X574040Y1772636D03*
X574040Y1789636D03*
X779780Y1770477D03*
X779780Y1787477D03*
D12*
X326070Y1777417D02*
X319090Y1777417D01*
X326070Y1777417D02*
X326070Y1770437D01*
X319090Y1770437D01*
X319090Y1777417D01*
X319090Y1775237D02*
X326070Y1775237D01*
X326070Y1794957D02*
X319090Y1794957D01*
X326070Y1794957D02*
X326070Y1787977D01*
X319090Y1787977D01*
X319090Y1794957D01*
X319090Y1792777D02*
X326070Y1792777D01*
X517210Y1777417D02*
X524190Y1777417D01*
X524190Y1770437D01*
X517210Y1770437D01*
X517210Y1777417D01*
X517210Y1775237D02*
X524190Y1775237D01*
X524190Y1794957D02*
X517210Y1794957D01*
X524190Y1794957D02*
X524190Y1787977D01*
X517210Y1787977D01*
X517210Y1794957D01*
X517210Y1792777D02*
X524190Y1792777D01*
X722950Y1775844D02*
X729930Y1775844D01*
X729930Y1768864D01*
X722950Y1768864D01*
X722950Y1775844D01*
X722950Y1773664D02*
X729930Y1773664D01*
X729930Y1793384D02*
X722950Y1793384D01*
X729930Y1793384D02*
X729930Y1786404D01*
X722950Y1786404D01*
X722950Y1793384D01*
X722950Y1791204D02*
X729930Y1791204D01*
D16*
X297180Y1772636D03*
X297180Y1789636D03*
X496570Y1775176D03*
X496570Y1792176D03*
X698500Y1771063D03*
X698500Y1788063D03*
D19*
X280670Y1590040D03*
D20*
X330670Y1590040D03*
X380670Y1590040D03*
D19*
X444500Y1590040D03*
D20*
X494500Y1590040D03*
X544500Y1590040D03*
D19*
X608330Y1590040D03*
D20*
X658330Y1590040D03*
X708330Y1590040D03*
D24*
X706120Y1864520D03*
X706120Y1924520D03*
X659120Y1894520D03*
D16*
X522986Y1876670D03*
X522986Y1859670D03*
X507746Y1876670D03*
X507746Y1859670D03*
D25*
X609854Y1918706D03*
X609854Y1885706D03*
D26*
X651674Y1842516D03*
X608674Y1842516D03*
D27*
X555971Y1913738D03*
X555971Y1904238D03*
X555971Y1894738D03*
X583473Y1894738D03*
X583473Y1904238D03*
X583473Y1913738D03*
D28*
X548132Y1926886D03*
X548132Y1938486D03*
D29*
X510540Y1954530D03*
X511040Y1918030D03*
D16*
X575310Y1845700D03*
X575310Y1862700D03*
D10*
X574920Y1878330D03*
X557920Y1878330D03*
D11*
X569722Y1937696D03*
X569722Y1960696D03*
D17*
X228600Y1945640D03*
D11*
X556260Y1841430D03*
X556260Y1864430D03*
D21*
X68580Y2017395D03*
X756285Y2017395D03*
D30*
X59525Y-46355D02*
X59528Y-46133D01*
X59536Y-45911D01*
X59550Y-45689D01*
X59569Y-45467D01*
X59593Y-45247D01*
X59623Y-45026D01*
X59658Y-44807D01*
X59699Y-44588D01*
X59745Y-44371D01*
X59796Y-44155D01*
X59853Y-43940D01*
X59915Y-43726D01*
X59982Y-43515D01*
X60054Y-43304D01*
X60132Y-43096D01*
X60214Y-42890D01*
X60302Y-42686D01*
X60394Y-42483D01*
X60492Y-42284D01*
X60594Y-42087D01*
X60701Y-41892D01*
X60813Y-41700D01*
X60930Y-41511D01*
X61051Y-41324D01*
X61177Y-41141D01*
X61307Y-40961D01*
X61442Y-40784D01*
X61580Y-40611D01*
X61723Y-40441D01*
X61871Y-40274D01*
X62022Y-40111D01*
X62177Y-39952D01*
X62336Y-39797D01*
X62499Y-39646D01*
X62666Y-39498D01*
X62836Y-39355D01*
X63009Y-39217D01*
X63186Y-39082D01*
X63366Y-38952D01*
X63549Y-38826D01*
X63736Y-38705D01*
X63925Y-38588D01*
X64117Y-38476D01*
X64312Y-38369D01*
X64509Y-38267D01*
X64708Y-38169D01*
X64911Y-38077D01*
X65115Y-37989D01*
X65321Y-37907D01*
X65529Y-37829D01*
X65740Y-37757D01*
X65951Y-37690D01*
X66165Y-37628D01*
X66380Y-37571D01*
X66596Y-37520D01*
X66813Y-37474D01*
X67032Y-37433D01*
X67251Y-37398D01*
X67472Y-37368D01*
X67692Y-37344D01*
X67914Y-37325D01*
X68136Y-37311D01*
X68358Y-37303D01*
X68580Y-37300D01*
X68802Y-37303D01*
X69024Y-37311D01*
X69246Y-37325D01*
X69468Y-37344D01*
X69688Y-37368D01*
X69909Y-37398D01*
X70128Y-37433D01*
X70347Y-37474D01*
X70564Y-37520D01*
X70780Y-37571D01*
X70995Y-37628D01*
X71209Y-37690D01*
X71420Y-37757D01*
X71631Y-37829D01*
X71839Y-37907D01*
X72045Y-37989D01*
X72249Y-38077D01*
X72452Y-38169D01*
X72651Y-38267D01*
X72848Y-38369D01*
X73043Y-38476D01*
X73235Y-38588D01*
X73424Y-38705D01*
X73611Y-38826D01*
X73794Y-38952D01*
X73974Y-39082D01*
X74151Y-39217D01*
X74324Y-39355D01*
X74494Y-39498D01*
X74661Y-39646D01*
X74824Y-39797D01*
X74983Y-39952D01*
X75138Y-40111D01*
X75289Y-40274D01*
X75437Y-40441D01*
X75580Y-40611D01*
X75718Y-40784D01*
X75853Y-40961D01*
X75983Y-41141D01*
X76109Y-41324D01*
X76230Y-41511D01*
X76347Y-41700D01*
X76459Y-41892D01*
X76566Y-42087D01*
X76668Y-42284D01*
X76766Y-42483D01*
X76858Y-42686D01*
X76946Y-42890D01*
X77028Y-43096D01*
X77106Y-43304D01*
X77178Y-43515D01*
X77245Y-43726D01*
X77307Y-43940D01*
X77364Y-44155D01*
X77415Y-44371D01*
X77461Y-44588D01*
X77502Y-44807D01*
X77537Y-45026D01*
X77567Y-45247D01*
X77591Y-45467D01*
X77610Y-45689D01*
X77624Y-45911D01*
X77632Y-46133D01*
X77635Y-46355D01*
X77632Y-46577D01*
X77624Y-46799D01*
X77610Y-47021D01*
X77591Y-47243D01*
X77567Y-47463D01*
X77537Y-47684D01*
X77502Y-47903D01*
X77461Y-48122D01*
X77415Y-48339D01*
X77364Y-48555D01*
X77307Y-48770D01*
X77245Y-48984D01*
X77178Y-49195D01*
X77106Y-49406D01*
X77028Y-49614D01*
X76946Y-49820D01*
X76858Y-50024D01*
X76766Y-50227D01*
X76668Y-50426D01*
X76566Y-50623D01*
X76459Y-50818D01*
X76347Y-51010D01*
X76230Y-51199D01*
X76109Y-51386D01*
X75983Y-51569D01*
X75853Y-51749D01*
X75718Y-51926D01*
X75580Y-52099D01*
X75437Y-52269D01*
X75289Y-52436D01*
X75138Y-52599D01*
X74983Y-52758D01*
X74824Y-52913D01*
X74661Y-53064D01*
X74494Y-53212D01*
X74324Y-53355D01*
X74151Y-53493D01*
X73974Y-53628D01*
X73794Y-53758D01*
X73611Y-53884D01*
X73424Y-54005D01*
X73235Y-54122D01*
X73043Y-54234D01*
X72848Y-54341D01*
X72651Y-54443D01*
X72452Y-54541D01*
X72249Y-54633D01*
X72045Y-54721D01*
X71839Y-54803D01*
X71631Y-54881D01*
X71420Y-54953D01*
X71209Y-55020D01*
X70995Y-55082D01*
X70780Y-55139D01*
X70564Y-55190D01*
X70347Y-55236D01*
X70128Y-55277D01*
X69909Y-55312D01*
X69688Y-55342D01*
X69468Y-55366D01*
X69246Y-55385D01*
X69024Y-55399D01*
X68802Y-55407D01*
X68580Y-55410D01*
X68358Y-55407D01*
X68136Y-55399D01*
X67914Y-55385D01*
X67692Y-55366D01*
X67472Y-55342D01*
X67251Y-55312D01*
X67032Y-55277D01*
X66813Y-55236D01*
X66596Y-55190D01*
X66380Y-55139D01*
X66165Y-55082D01*
X65951Y-55020D01*
X65740Y-54953D01*
X65529Y-54881D01*
X65321Y-54803D01*
X65115Y-54721D01*
X64911Y-54633D01*
X64708Y-54541D01*
X64509Y-54443D01*
X64312Y-54341D01*
X64117Y-54234D01*
X63925Y-54122D01*
X63736Y-54005D01*
X63549Y-53884D01*
X63366Y-53758D01*
X63186Y-53628D01*
X63009Y-53493D01*
X62836Y-53355D01*
X62666Y-53212D01*
X62499Y-53064D01*
X62336Y-52913D01*
X62177Y-52758D01*
X62022Y-52599D01*
X61871Y-52436D01*
X61723Y-52269D01*
X61580Y-52099D01*
X61442Y-51926D01*
X61307Y-51749D01*
X61177Y-51569D01*
X61051Y-51386D01*
X60930Y-51199D01*
X60813Y-51010D01*
X60701Y-50818D01*
X60594Y-50623D01*
X60492Y-50426D01*
X60394Y-50227D01*
X60302Y-50024D01*
X60214Y-49820D01*
X60132Y-49614D01*
X60054Y-49406D01*
X59982Y-49195D01*
X59915Y-48984D01*
X59853Y-48770D01*
X59796Y-48555D01*
X59745Y-48339D01*
X59699Y-48122D01*
X59658Y-47903D01*
X59623Y-47684D01*
X59593Y-47463D01*
X59569Y-47243D01*
X59550Y-47021D01*
X59536Y-46799D01*
X59528Y-46577D01*
X59525Y-46355D01*
D31*
X68580Y-46355D03*
M02*
