G04 EAGLE Gerber RS-274X export*
G75*
%MOMM*%
%FSLAX34Y34*%
%LPD*%
%INSoldermask Bottom*%
%IPPOS*%
%AMOC8*
5,1,8,0,0,1.08239X$1,22.5*%
G01*
%ADD10C,2.489200*%
%ADD11C,3.505200*%
%ADD12C,1.203200*%
%ADD13C,1.221313*%
%ADD14R,2.616200X2.616200*%
%ADD15C,2.616200*%
%ADD16C,2.082800*%
%ADD17C,4.521200*%
%ADD18R,0.838200X1.473200*%


D10*
X63500Y228600D03*
X190500Y152400D03*
X190500Y228600D03*
X38100Y152400D03*
X81280Y152400D03*
D11*
X25400Y444500D03*
X800100Y444500D03*
D12*
X800100Y419100D03*
X50800Y25400D03*
D13*
X285750Y367030D03*
X311150Y367030D03*
X336550Y367030D03*
X285750Y392430D03*
X311150Y392430D03*
X336550Y392430D03*
D11*
X25400Y25400D03*
X800100Y25400D03*
D14*
X116840Y88900D03*
D15*
X166840Y88900D03*
X216840Y88900D03*
D16*
X355600Y457200D03*
X330200Y457200D03*
X304800Y457200D03*
X279400Y457200D03*
D10*
X266700Y228600D03*
X393700Y152400D03*
X393700Y228600D03*
X241300Y152400D03*
X284480Y152400D03*
X469900Y228600D03*
X596900Y152400D03*
X596900Y228600D03*
X444500Y152400D03*
X487680Y152400D03*
X673100Y228600D03*
X800100Y152400D03*
X800100Y228600D03*
X647700Y152400D03*
X690880Y152400D03*
D14*
X280670Y88900D03*
D15*
X330670Y88900D03*
X380670Y88900D03*
D14*
X444500Y88900D03*
D15*
X494500Y88900D03*
X544500Y88900D03*
D14*
X608330Y88900D03*
D15*
X658330Y88900D03*
X708330Y88900D03*
D17*
X706120Y363380D03*
X706120Y423380D03*
X659120Y393380D03*
D18*
X397764Y381000D03*
X389636Y381000D03*
X599440Y447040D03*
X607568Y447040D03*
X613664Y355600D03*
X605536Y355600D03*
D11*
X228600Y444500D03*
D10*
X63500Y728980D03*
X190500Y652780D03*
X190500Y728980D03*
X38100Y652780D03*
X81280Y652780D03*
D11*
X25400Y944880D03*
X800100Y944880D03*
D12*
X800100Y919480D03*
X50800Y525780D03*
D13*
X285750Y867410D03*
X311150Y867410D03*
X336550Y867410D03*
X285750Y892810D03*
X311150Y892810D03*
X336550Y892810D03*
D11*
X25400Y525780D03*
X800100Y525780D03*
D14*
X116840Y589280D03*
D15*
X166840Y589280D03*
X216840Y589280D03*
D16*
X355600Y957580D03*
X330200Y957580D03*
X304800Y957580D03*
X279400Y957580D03*
D10*
X266700Y728980D03*
X393700Y652780D03*
X393700Y728980D03*
X241300Y652780D03*
X284480Y652780D03*
X469900Y728980D03*
X596900Y652780D03*
X596900Y728980D03*
X444500Y652780D03*
X487680Y652780D03*
X673100Y728980D03*
X800100Y652780D03*
X800100Y728980D03*
X647700Y652780D03*
X690880Y652780D03*
D14*
X280670Y589280D03*
D15*
X330670Y589280D03*
X380670Y589280D03*
D14*
X444500Y589280D03*
D15*
X494500Y589280D03*
X544500Y589280D03*
D14*
X608330Y589280D03*
D15*
X658330Y589280D03*
X708330Y589280D03*
D17*
X706120Y863760D03*
X706120Y923760D03*
X659120Y893760D03*
D18*
X397764Y881380D03*
X389636Y881380D03*
X599440Y947420D03*
X607568Y947420D03*
X613664Y855980D03*
X605536Y855980D03*
D11*
X228600Y944880D03*
D10*
X63500Y1229360D03*
X190500Y1153160D03*
X190500Y1229360D03*
X38100Y1153160D03*
X81280Y1153160D03*
D11*
X25400Y1445260D03*
X800100Y1445260D03*
D12*
X800100Y1419860D03*
X50800Y1026160D03*
D13*
X285750Y1367790D03*
X311150Y1367790D03*
X336550Y1367790D03*
X285750Y1393190D03*
X311150Y1393190D03*
X336550Y1393190D03*
D11*
X25400Y1026160D03*
X800100Y1026160D03*
D14*
X116840Y1089660D03*
D15*
X166840Y1089660D03*
X216840Y1089660D03*
D16*
X355600Y1457960D03*
X330200Y1457960D03*
X304800Y1457960D03*
X279400Y1457960D03*
D10*
X266700Y1229360D03*
X393700Y1153160D03*
X393700Y1229360D03*
X241300Y1153160D03*
X284480Y1153160D03*
X469900Y1229360D03*
X596900Y1153160D03*
X596900Y1229360D03*
X444500Y1153160D03*
X487680Y1153160D03*
X673100Y1229360D03*
X800100Y1153160D03*
X800100Y1229360D03*
X647700Y1153160D03*
X690880Y1153160D03*
D14*
X280670Y1089660D03*
D15*
X330670Y1089660D03*
X380670Y1089660D03*
D14*
X444500Y1089660D03*
D15*
X494500Y1089660D03*
X544500Y1089660D03*
D14*
X608330Y1089660D03*
D15*
X658330Y1089660D03*
X708330Y1089660D03*
D17*
X706120Y1364140D03*
X706120Y1424140D03*
X659120Y1394140D03*
D18*
X397764Y1381760D03*
X389636Y1381760D03*
X599440Y1447800D03*
X607568Y1447800D03*
X613664Y1356360D03*
X605536Y1356360D03*
D11*
X228600Y1445260D03*
D10*
X63500Y1729740D03*
X190500Y1653540D03*
X190500Y1729740D03*
X38100Y1653540D03*
X81280Y1653540D03*
D11*
X25400Y1945640D03*
X800100Y1945640D03*
D12*
X800100Y1920240D03*
X50800Y1526540D03*
D13*
X285750Y1868170D03*
X311150Y1868170D03*
X336550Y1868170D03*
X285750Y1893570D03*
X311150Y1893570D03*
X336550Y1893570D03*
D11*
X25400Y1526540D03*
X800100Y1526540D03*
D14*
X116840Y1590040D03*
D15*
X166840Y1590040D03*
X216840Y1590040D03*
D16*
X355600Y1958340D03*
X330200Y1958340D03*
X304800Y1958340D03*
X279400Y1958340D03*
D10*
X266700Y1729740D03*
X393700Y1653540D03*
X393700Y1729740D03*
X241300Y1653540D03*
X284480Y1653540D03*
X469900Y1729740D03*
X596900Y1653540D03*
X596900Y1729740D03*
X444500Y1653540D03*
X487680Y1653540D03*
X673100Y1729740D03*
X800100Y1653540D03*
X800100Y1729740D03*
X647700Y1653540D03*
X690880Y1653540D03*
D14*
X280670Y1590040D03*
D15*
X330670Y1590040D03*
X380670Y1590040D03*
D14*
X444500Y1590040D03*
D15*
X494500Y1590040D03*
X544500Y1590040D03*
D14*
X608330Y1590040D03*
D15*
X658330Y1590040D03*
X708330Y1590040D03*
D17*
X706120Y1864520D03*
X706120Y1924520D03*
X659120Y1894520D03*
D18*
X397764Y1882140D03*
X389636Y1882140D03*
X599440Y1948180D03*
X607568Y1948180D03*
X613664Y1856740D03*
X605536Y1856740D03*
D11*
X228600Y1945640D03*
D12*
X68580Y2017395D03*
X756285Y2017395D03*
M02*
